# xmcd CD database file
# Copyright (C) 1996 Ti Kan
#
# Track frame offsets:
# 	150
# 	26282
# 	49555
# 	71697
# 	115362
# 	141145
# 	142037
# 	159057
# 	177892
# 	195392
# 	217332
#
# Disc length: 3147 seconds
#
# Revision: 1
# Processed by: cddbd v1.4b41PL1 Copyright (c) Steve Scherf et al.
# Submitted via: DiscPlay 3.4.1
#
DISCID=9a0c490b
DTITLE=New Edition - New Edition's Greatest Hits- Volume 1
DYEAR=1900
DGENRE=
TTITLE0=Boys To Men (Remixed Version)
TTITLE1=If It Isn't Love
TTITLE2=Can You Stand the Rain
TTITLE3=Count Me Out
TTITLE4=A Little Bit Of Love (Is All It Takes)
TTITLE5=Cool It Now
TTITLE6=Mr. Telephone Man
TTITLE7=Lost In Love
TTITLE8=Candy Girl
TTITLE9=Popcorn Love
TTITLE10=Is This The End
EXTD=
EXTT0=
EXTT1=
EXTT2=
EXTT3=
EXTT4=
EXTT5=
EXTT6=
EXTT7=
EXTT8=
EXTT9=
EXTT10=
PLAYORDER=
